<svg width="24" height="24" viewBox="0 0 24 24" fill="none" xmlns="http://www.w3.org/2000/svg">
<g clip-path="url(#clip0_229_357)">
<path d="M11.9785 18.6219V12.9143" stroke="white" stroke-width="2" stroke-linecap="round"/>
<path d="M4.84425 20.9999C4.84425 20.9999 6.27114 19.0974 11.9787 19.0974C17.6863 19.0974 20.0645 20.9999 20.0645 20.9999" stroke="white" stroke-width="2" stroke-linecap="round"/>
<path d="M4.08543 3.18991C5.02914 2.24619 7.70675 3.39374 10.066 5.75303C12.4253 8.11231 13.5729 10.7899 12.6292 11.7336C11.6854 12.6774 9.00783 11.5298 6.64854 9.17052C4.28926 6.81123 3.14171 4.13362 4.08543 3.18991Z" stroke="white" stroke-width="2"/>
<path d="M12.0232 12.1214C13.2631 11.8563 14.9355 10.8335 16.4728 9.29623C18.8321 6.93694 19.9797 4.25933 19.036 3.31562C18.0922 2.3719 15.4146 3.51945 13.0553 5.87874C12.5945 6.33959 12.1799 6.8126 11.818 7.28245" stroke="white" stroke-width="2" stroke-linecap="round"/>
</g>
<defs>
<clipPath id="clip0_229_357">
<rect width="24" height="24" fill="white"/>
</clipPath>
</defs>
</svg>
