<svg width="24" height="24" viewBox="0 0 24 24" fill="none" xmlns="http://www.w3.org/2000/svg">
<g clip-path="url(#clip0_227_318)">
<path d="M4.5 21V11M4.5 21H3M4.5 21H9.5M19.5 21V11M19.5 21H14.5M19.5 21H21M14.5 21V11M14.5 21H9.5M9.5 21V11M19.6782 9.27405L14.751 4.60619C13.4483 3.37206 12.7969 2.755 12 2.755C11.2031 2.755 10.5517 3.37206 9.24902 4.60619L4.32184 9.27405C3.5505 10.0048 3.16482 10.3702 3.29031 10.6851C3.41579 11 3.94706 11 5.00958 11H18.9904C20.0529 11 20.5842 11 20.7097 10.6851C20.8352 10.3702 20.4495 10.0048 19.6782 9.27405Z" stroke="#909090" stroke-width="2" stroke-linecap="round"/>
</g>
<defs>
<clipPath id="clip0_227_318">
<rect width="24" height="24" fill="white"/>
</clipPath>
</defs>
</svg>
